# xmcd CD database file
#
# Track frame offsets:
#	150
#	11590
#	24772
#	42961
#	55509
#	68101
#	78056
#	89712
#	106121
#	118249
#	130186
#	143862
#
# Disc length: 2147 seconds
#
# Revision: 0
# Processed by: cddbd v1.5.2PL0 Copyright (c) Steve Scherf et al.
# Submitted via: CDex 1.51
#
DISCID=9208610c
DTITLE=Various Artist - 100% Country CD 2
DYEAR=2006
DGENRE=Country
TTITLE0=I've got a tiger by the tail - Heidi Hauge
TTITLE1=Ein fyr som tenne på dæ - Ottar Big Hand Johansen
TTITLE2=Garden Party - Ricky Nelson
TTITLE3=Folsom Prison Blues - Johnny Cash
TTITLE4=Making Believe - Dolly Parton
TTITLE5=From a jack to a king - Ned Miller
TTITLE6=Walkin' after midnight - Patsy Cline
TTITLE7=Blanket on the ground - Billy Jo Spears
TTITLE8=Some broken hearts never mend - Telly Savalas
TTITLE9=Let it be me - The Everly Brothers
TTITLE10=I just can't help believing - B. J. Thomas
TTITLE11=Calypso - John Denver
EXTD=YEAR: 2006
EXTT0=
EXTT1=
EXTT2=
EXTT3=
EXTT4=
EXTT5=
EXTT6=
EXTT7=
EXTT8=
EXTT9=
EXTT10=
EXTT11=
PLAYORDER=
